<svg width="137" height="40" viewBox="0 0 137 40" fill="none" xmlns="http://www.w3.org/2000/svg">
<path d="M58.1647 13.12C57.5727 13.12 57.0767 12.936 56.6767 12.568C56.2927 12.184 56.1007 11.712 56.1007 11.152C56.1007 10.592 56.2927 10.128 56.6767 9.76C57.0767 9.376 57.5727 9.184 58.1647 9.184C58.7567 9.184 59.2447 9.376 59.6287 9.76C60.0287 10.128 60.2287 10.592 60.2287 11.152C60.2287 11.712 60.0287 12.184 59.6287 12.568C59.2447 12.936 58.7567 13.12 58.1647 13.12ZM59.8207 14.704V28H56.4607V14.704H59.8207ZM70.5084 14.512C72.0924 14.512 73.3724 15.016 74.3484 16.024C75.3244 17.016 75.8124 18.408 75.8124 20.2V28H72.4524V20.656C72.4524 19.6 72.1884 18.792 71.6604 18.232C71.1324 17.656 70.4124 17.368 69.5004 17.368C68.5724 17.368 67.8364 17.656 67.2924 18.232C66.7644 18.792 66.5004 19.6 66.5004 20.656V28H63.1404V14.704H66.5004V16.36C66.9484 15.784 67.5164 15.336 68.2044 15.016C68.9084 14.68 69.6764 14.512 70.5084 14.512ZM78.1436 21.352C78.1436 19.976 78.4236 18.776 78.9836 17.752C79.5436 16.712 80.3196 15.912 81.3116 15.352C82.3036 14.776 83.4396 14.488 84.7196 14.488C86.3676 14.488 87.7276 14.904 88.7996 15.736C89.8876 16.552 90.6156 17.704 90.9836 19.192H87.3596C87.1676 18.616 86.8396 18.168 86.3756 17.848C85.9276 17.512 85.3676 17.344 84.6956 17.344C83.7356 17.344 82.9756 17.696 82.4156 18.4C81.8556 19.088 81.5756 20.072 81.5756 21.352C81.5756 22.616 81.8556 23.6 82.4156 24.304C82.9756 24.992 83.7356 25.336 84.6956 25.336C86.0556 25.336 86.9436 24.728 87.3596 23.512H90.9836C90.6156 24.952 89.8876 26.096 88.7996 26.944C87.7116 27.792 86.3516 28.216 84.7196 28.216C83.4396 28.216 82.3036 27.936 81.3116 27.376C80.3196 26.8 79.5436 26 78.9836 24.976C78.4236 23.936 78.1436 22.728 78.1436 21.352ZM92.5811 21.304C92.5811 19.96 92.8451 18.768 93.3731 17.728C93.9171 16.688 94.6451 15.888 95.5571 15.328C96.4851 14.768 97.5171 14.488 98.6531 14.488C99.6451 14.488 100.509 14.688 101.245 15.088C101.997 15.488 102.597 15.992 103.045 16.6V14.704H106.429V28H103.045V26.056C102.613 26.68 102.013 27.2 101.245 27.616C100.493 28.016 99.6211 28.216 98.6291 28.216C97.5091 28.216 96.4851 27.928 95.5571 27.352C94.6451 26.776 93.9171 25.968 93.3731 24.928C92.8451 23.872 92.5811 22.664 92.5811 21.304ZM103.045 21.352C103.045 20.536 102.885 19.84 102.565 19.264C102.245 18.672 101.813 18.224 101.269 17.92C100.725 17.6 100.141 17.44 99.5171 17.44C98.8931 17.44 98.3171 17.592 97.7891 17.896C97.2611 18.2 96.8291 18.648 96.4931 19.24C96.1731 19.816 96.0131 20.504 96.0131 21.304C96.0131 22.104 96.1731 22.808 96.4931 23.416C96.8291 24.008 97.2611 24.464 97.7891 24.784C98.3331 25.104 98.9091 25.264 99.5171 25.264C100.141 25.264 100.725 25.112 101.269 24.808C101.813 24.488 102.245 24.04 102.565 23.464C102.885 22.872 103.045 22.168 103.045 21.352ZM114.799 28.216C113.711 28.216 112.735 28.024 111.871 27.64C111.007 27.24 110.319 26.704 109.807 26.032C109.311 25.36 109.039 24.616 108.991 23.8H112.375C112.439 24.312 112.687 24.736 113.119 25.072C113.567 25.408 114.119 25.576 114.775 25.576C115.415 25.576 115.911 25.448 116.263 25.192C116.631 24.936 116.815 24.608 116.815 24.208C116.815 23.776 116.591 23.456 116.143 23.248C115.711 23.024 115.015 22.784 114.055 22.528C113.063 22.288 112.247 22.04 111.607 21.784C110.983 21.528 110.439 21.136 109.975 20.608C109.527 20.08 109.303 19.368 109.303 18.472C109.303 17.736 109.511 17.064 109.927 16.456C110.359 15.848 110.967 15.368 111.751 15.016C112.551 14.664 113.487 14.488 114.559 14.488C116.143 14.488 117.407 14.888 118.351 15.688C119.295 16.472 119.815 17.536 119.911 18.88H116.695C116.647 18.352 116.423 17.936 116.023 17.632C115.639 17.312 115.119 17.152 114.463 17.152C113.855 17.152 113.383 17.264 113.047 17.488C112.727 17.712 112.567 18.024 112.567 18.424C112.567 18.872 112.791 19.216 113.239 19.456C113.687 19.68 114.383 19.912 115.327 20.152C116.287 20.392 117.079 20.64 117.703 20.896C118.327 21.152 118.863 21.552 119.311 22.096C119.775 22.624 120.015 23.328 120.031 24.208C120.031 24.976 119.815 25.664 119.383 26.272C118.967 26.88 118.359 27.36 117.559 27.712C116.775 28.048 115.855 28.216 114.799 28.216ZM130.277 14.512C131.285 14.512 132.181 14.736 132.965 15.184C133.749 15.616 134.357 16.264 134.789 17.128C135.237 17.976 135.461 19 135.461 20.2V28H132.101V20.656C132.101 19.6 131.837 18.792 131.309 18.232C130.781 17.656 130.061 17.368 129.149 17.368C128.221 17.368 127.485 17.656 126.941 18.232C126.413 18.792 126.149 19.6 126.149 20.656V28H122.789V10.24H126.149V16.36C126.581 15.784 127.157 15.336 127.877 15.016C128.597 14.68 129.397 14.512 130.277 14.512Z" fill="white"/>
<path d="M34.1422 5.85781C30.3647 2.08031 25.3422 0 20 0C14.6578 0 9.63531 2.08031 5.85781 5.85781C2.08031 9.63531 0 14.6578 0 20C0 25.3422 2.08039 30.3646 5.85781 34.1422C9.63523 37.9198 14.6578 40 20 40C25.3422 40 30.3647 37.9197 34.1422 34.1422C37.9197 30.3647 40 25.3422 40 20C40 14.6578 37.9196 9.63539 34.1422 5.85781Z" fill="#33CC95"/>
<g clip-path="url(#clip0)">
<path d="M20.5714 8V33.1429" stroke="white" stroke-width="2" stroke-linecap="round" stroke-linejoin="round"/>
<path d="M26.2857 12.5714H17.7143C16.6534 12.5714 15.636 12.9929 14.8859 13.743C14.1357 14.4931 13.7143 15.5106 13.7143 16.5714C13.7143 17.6323 14.1357 18.6497 14.8859 19.3999C15.636 20.15 16.6534 20.5714 17.7143 20.5714H23.4286C24.4894 20.5714 25.5069 20.9929 26.257 21.743C27.0072 22.4932 27.4286 23.5106 27.4286 24.5714C27.4286 25.6323 27.0072 26.6497 26.257 27.3999C25.5069 28.15 24.4894 28.5714 23.4286 28.5714H13.7143" stroke="white" stroke-width="2" stroke-linecap="round" stroke-linejoin="round"/>
</g>
<defs>
<clipPath id="clip0">
<rect width="27.4286" height="27.4286" fill="white" transform="translate(6.85715 6.85714)"/>
</clipPath>
</defs>
</svg>
